<?xml version="1.0" standalone="no"?>
<!DOCTYPE svg PUBLIC "-//W3C//DTD SVG 1.1//EN" "http://www.w3.org/Graphics/SVG/1.1/DTD/svg11.dtd">
<svg xmlns="http://www.w3.org/2000/svg">
<metadata>Generated by Fontastic.me</metadata>
<defs>
<font id="jujus-admin" horiz-adv-x="512">
<font-face font-family="jujus-admin" units-per-em="512" ascent="480" descent="-32"/>
<missing-glyph horiz-adv-x="512" />

<glyph glyph-name="jujus" unicode="&#97;" d="M495 200l-25 0 0 33c0 9-7 16-16 16-9 0-16-7-16-16l0-33-26 0c-9 0-16-7-16-16 0-10 7-17 16-17l26 0 0-22c0-1 0-3 0-4l0-1c-3-37-33-66-69-66-38 0-69 32-69 71l0 205c25 7 43 30 43 57 0 33-26 59-59 59-10 0-20-3-29-7-18-10-30-30-30-52 0-22 12-41 30-51 4-3 9-4 13-6l0-205c0-28 11-54 30-73 19-20 44-31 71-31 29 0 56 13 76 35 15 18 24 40 25 64 0 2 0 3 0 5l0 22 25 0c10 0 17 7 17 17 0 9-7 16-17 16z m-211 178c-2 0-4 0-6 0-13 3-24 15-24 29 0 14 11 26 24 29 2 0 4 1 6 1 16 0 30-14 30-30 0-16-14-29-30-29z m-70 29c0 23 11 44 29 57l0 0-1 0c-2 1-4 1-5 1-1 0-2 0-3 1-1 0-2 0-3 0-2 0-3 0-5 0-32 0-59-26-59-59 0-1 0-2 0-3 0-1 0-1 0-2 1-1 1-1 1-2l0-1c0 0 0-1 0-2 0-1 0-1 1-2 0-2 0-4 1-5 0-1 1-2 1-3 0-1 1-2 1-3 1-1 1-3 2-5 1-1 1-2 2-3 0 0 1-1 1-2 3-4 7-8 11-11 0-1 1-1 2-2 3-3 7-5 11-7 1 0 2-1 2-1 1 0 1 0 2-1 1 0 2-1 4-1 0 0 1 0 2-1l0-205c0-39-31-70-69-70-39 0-70 31-70 70l0 45 15-17c5-7 16-8 23-2l0 1c7 5 8 15 2 22l-41 49c-3 4-8 6-13 6-4 0-9-2-13-6l-41-49c-5-7-4-17 2-22l1-1c7-6 17-5 23 2l15 18 0-52c0-58 41-98 97-98 55 0 101 47 101 104l0 206 0 0c-18 12-29 33-29 56z"/>
<glyph glyph-name="behaivior" unicode="&#98;" d="M427 256c0 94-77 171-171 171-94 0-171-77-171-171 0-94 77-171 171-171 94 0 171 77 171 171m42 0c0-118-95-213-213-213-118 0-213 95-213 213 0 118 95 213 213 213 118 0 213-95 213-213m-138 85c17 0 32-15 32-32 0-17-15-32-32-32-17 0-32 15-32 32 0 17 15 32 32 32m-118-32c0-17-15-32-32-32-17 0-32 15-32 32 0 17 15 32 32 32 17 0 32-15 32-32m43-96c37 0 70-15 89-38l-30-31c-10 16-32 27-59 27-27 0-49-11-59-27l-30 31c19 23 52 38 89 38z"/>
<glyph glyph-name="block" unicode="&#99;" d="M256 512c141 0 256-115 256-256 0-141-115-256-256-256-141 0-256 115-256 256 0 141 115 256 256 256m0-43c-118 0-213-95-213-213 0-51 18-98 48-135l300 300c-37 30-84 48-135 48m0-426c118 0 213 95 213 213 0 51-18 98-48 135l-300-300c37-30 84-48 135-48z"/>
<glyph glyph-name="not-checked" unicode="&#100;" d="M256 85c-94 0-171 77-171 171 0 94 77 171 171 171 94 0 171-77 171-171 0-94-77-171-171-171m0 384c-118 0-213-95-213-213 0-118 95-213 213-213 118 0 213 95 213 213 0 118-95 213-213 213z"/>
<glyph glyph-name="checked" unicode="&#101;" d="M213 149l-106 107 30 30 76-76 162 162 30-31m-149 128c-118 0-213-95-213-213 0-118 95-213 213-213 118 0 213 95 213 213 0 118-95 213-213 213z"/>
<glyph glyph-name="close-circle" unicode="&#102;" d="M256 85c-94 0-171 77-171 171 0 94 77 171 171 171 94 0 171-77 171-171 0-94-77-171-171-171m0 384c-118 0-213-95-213-213 0-118 95-213 213-213 118 0 213 95 213 213 0 118-95 213-213 213m55-128l-55-55-55 55-30-30 55-55-55-55 30-30 55 55 55-55 30 30-55 55 55 55z"/>
<glyph glyph-name="comment" unicode="&#103;" d="M192 43c-12 0-21 9-21 21l0 64-86 0c-23 0-42 19-42 43l0 256c0 23 19 42 42 42l342 0c23 0 42-19 42-42l0-256c0-24-19-43-42-43l-130 0-79-79c-5-4-10-6-15-6l-11 0m21 128l0-66 66 66 148 0 0 256-342 0 0-256 128 0m64 128l-42 0 0 85 42 0 0-85m0-86l-42 0 0 43 42 0z"/>
<glyph glyph-name="description" unicode="&#104;" d="M64 448l384 0 0-43-384 0 0 43m85-85l214 0 0-43-214 0 0 43m-85-86l384 0 0-42-384 0 0 42m85-85l214 0 0-43-214 0 0 43m-85-85l384 0 0-43-384 0z"/>
<glyph glyph-name="emoticon-devil" unicode="&#105;" d="M32 467c19-19 51-35 89-46 37 30 84 48 135 48 51 0 98-18 135-48 38 11 70 27 89 46-1-34-18-66-47-92 23-34 36-75 36-119 0-118-95-213-213-213-118 0-213 95-213 213 0 44 13 85 36 119-29 26-46 58-47 92m395-211c0 94-77 171-171 171-94 0-171-77-171-171 0-94 77-171 171-171 94 0 171 77 171 171m-203 43c0-17-15-32-32-32-17 0-32 15-32 32l0 32 64-32m128 0c0-17-15-32-32-32-17 0-32 15-32 32l64 32 0-32m-96-155c-37 0-70 16-89 39l30 30c10-15 32-26 59-26 27 0 49 11 59 26l30-30c-19-23-52-39-89-39z"/>
<glyph glyph-name="events" unicode="&#106;" d="M405 107l-298 0 0 234 298 0m0 107l-21 0 0 43-43 0 0-43-170 0 0 43-43 0 0-43-21 0c-24 0-43-19-43-43l0-298c0-24 19-43 43-43l298 0c24 0 43 19 43 43l0 298c0 24-19 43-43 43m-52-172l-23 23-104-104-45 45-23-23 68-68z"/>
<glyph glyph-name="name" unicode="&#107;" d="M395 427l24-93-20-6c-10 19-19 37-31 47-11 9-24 9-37 9l-54 0 0-224c0-11 0-21 7-27 8-5 22-5 36-5l0-21-128 0 0 21c14 0 28 0 36 5 7 6 7 16 7 27l0 224-54 0c-13 0-26 0-37-9-12-10-21-28-31-47l-20 6 24 93z"/>
<glyph glyph-name="notifications" unicode="&#108;" d="M299 85c0-23-19-42-43-42-24 0-43 19-43 42l86 0m-43 384c12 0 21-9 21-21l0-23c61-10 107-63 107-126l0-128 64-64-384 0 64 64 0 128c0 63 46 116 107 126l0 23c0 12 9 21 21 21z"/>
<glyph glyph-name="photos" unicode="&#109;" d="M469 171l0 256c0 23-19 42-42 42l-256 0c-24 0-43-19-43-42l0-256c0-24 19-43 43-43l256 0c23 0 42 19 42 43m-234 85l43-58 63 79 86-106-256 0m-128 213l0-299c0-23 19-42 42-42l299 0 0 42-299 0 0 299"/>
<glyph glyph-name="report" unicode="&#110;" d="M277 320l118 0-118 117 0-117m-149 149l171 0 128-128 0-256c0-23-19-42-43-42l-256 0c-24 0-43 19-43 42l0 342c0 23 19 42 43 42m21-384l43 0 0 128-43 0 0-128m86 0l42 0 0 171-42 0 0-171m85 0l43 0 0 86-43 0z"/>
<glyph glyph-name="search" unicode="&#111;" d="M203 448c76 0 138-62 138-139 0-34-12-66-33-90l6-6 17 0 106-106-32-32-106 106 0 17-6 6c-24-21-56-33-90-33-77 0-139 62-139 138 0 77 62 139 139 139m0-43c-54 0-96-42-96-96 0-53 42-96 96-96 53 0 96 43 96 96 0 54-43 96-96 96z"/>
<glyph glyph-name="settings" unicode="&#112;" d="M256 181c-41 0-75 34-75 75 0 41 34 75 75 75 41 0 75-34 75-75 0-41-34-75-75-75m159 54c0 7 1 14 1 21 0 7-1 14-1 21l45 35c4 3 5 9 2 14l-43 74c-2 4-8 6-13 4l-53-21c-11 8-22 16-36 21l-8 56c-1 5-5 9-10 9l-86 0c-5 0-9-4-10-9l-8-56c-14-5-25-13-36-21l-53 21c-5 2-11 0-13-4l-43-74c-3-5-2-11 2-14l45-35c0-7-1-14-1-21 0-7 1-14 1-21l-45-35c-4-3-5-9-2-14l43-74c2-4 8-6 13-4l53 21c11-8 22-16 36-21l8-56c1-5 5-9 10-9l86 0c5 0 9 4 10 9l8 56c14 6 25 13 36 21l53-21c5-2 11 0 13 4l43 74c3 5 2 11-2 14z"/>
<glyph glyph-name="user" unicode="&#113;" d="M256 427c47 0 85-39 85-86 0-47-38-85-85-85-47 0-85 38-85 85 0 47 38 86 85 86m0-214c94 0 171-38 171-85l0-43-342 0 0 43c0 47 77 85 171 85z"/>
<glyph glyph-name="users" unicode="&#114;" d="M341 235c-6 0-13 0-20-1 24-18 42-42 42-74l0-53 128 0 0 53c0 50-100 75-150 75m-170 0c-50 0-150-25-150-75l0-53 299 0 0 53c0 50-100 75-149 75m0 42c35 0 64 29 64 64 0 36-29 64-64 64-36 0-64-28-64-64 0-35 28-64 64-64m170 0c36 0 64 29 64 64 0 36-28 64-64 64-35 0-64-28-64-64 0-35 29-64 64-64z"/>
<glyph glyph-name="table-sort" unicode="&#115;" d="M149 235l107-150 107 150z m214 42l-107 150-107-150z"/>
<glyph glyph-name="table-sorted-down" unicode="&#116;" d="M149 331l107-150 107 150z"/>
<glyph glyph-name="table-sorted-up" unicode="&#117;" d="M367 181l-107 150-106-150z"/>
<glyph glyph-name="burger" unicode="&#119;" d="M64 128l384 0 0 43-384 0z m0 107l384 0 0 42-384 0z m0 149l0-43 384 0 0 43z"/>
<glyph glyph-name="plus-circle" unicode="&#118;" d="M256 85c-94 0-171 77-171 171 0 94 77 171 171 171 94 0 171-77 171-171 0-94-77-171-171-171m0 384c-118 0-213-95-213-213 0-118 95-213 213-213 118 0 213 95 213 213 0 118-95 213-213 213m21-106l-42 0 0-86-86 0 0-42 86 0 0-86 42 0 0 86 86 0 0 42-86 0z"/>
</font>
</defs>
</svg>
